<?xml version="1.0" encoding="UTF-8" standalone="no"?>
<!DOCTYPE svg PUBLIC "-//W3C//DTD SVG 1.1//EN"
 "http://www.w3.org/Graphics/SVG/1.1/DTD/svg11.dtd">
<!-- Generated by graphviz version 12.1.1 (20240910.0053)
 -->
<!-- Title: INFRA Pages: 1 -->
<svg width="567pt" height="188pt"
 viewBox="0.00 0.00 566.91 188.00" xmlns="http://www.w3.org/2000/svg" xmlns:xlink="http://www.w3.org/1999/xlink">
<g id="graph0" class="graph" transform="scale(1 1) rotate(0) translate(4 184)">
<title>INFRA</title>
<polygon fill="white" stroke="none" points="-4,4 -4,-184 562.91,-184 562.91,4 -4,4"/>
<!-- handwave_ai_database -->
<g id="node1" class="node">
<title>handwave_ai_database</title>
<path fill="#ffcfb3" stroke="black" stroke-width="2" d="M174.7,-65.45C174.7,-69.07 135.55,-72 87.35,-72 39.15,-72 0,-69.07 0,-65.45 0,-65.45 0,-6.55 0,-6.55 0,-2.93 39.15,0 87.35,0 135.55,0 174.7,-2.93 174.7,-6.55 174.7,-6.55 174.7,-65.45 174.7,-65.45"/>
<path fill="none" stroke="black" stroke-width="2" d="M174.7,-65.45C174.7,-61.84 135.55,-58.91 87.35,-58.91 39.15,-58.91 0,-61.84 0,-65.45"/>
<text text-anchor="middle" x="87.35" y="-40.2" font-family="Arial" font-size="14.00">handwave_ai_database</text>
<text text-anchor="middle" x="87.35" y="-23.4" font-family="Arial" font-size="14.00">(AWS::RDS::DBInstance)</text>
</g>
<!-- handwave_ai_static_files -->
<g id="node2" class="node">
<title>handwave_ai_static_files</title>
<path fill="#fff5cd" stroke="black" stroke-width="2" d="M364.18,-65.45C364.18,-69.07 325.71,-72 278.35,-72 230.99,-72 192.52,-69.07 192.52,-65.45 192.52,-65.45 192.52,-6.55 192.52,-6.55 192.52,-2.93 230.99,0 278.35,0 325.71,0 364.18,-2.93 364.18,-6.55 364.18,-6.55 364.18,-65.45 364.18,-65.45"/>
<path fill="none" stroke="black" stroke-width="2" d="M364.18,-65.45C364.18,-61.84 325.71,-58.91 278.35,-58.91 230.99,-58.91 192.52,-61.84 192.52,-65.45"/>
<text text-anchor="middle" x="278.35" y="-40.2" font-family="Arial" font-size="14.00">handwave_ai_static_files</text>
<text text-anchor="middle" x="278.35" y="-23.4" font-family="Arial" font-size="14.00">(AWS::S3::Bucket)</text>
</g>
<!-- handwave_ai_media_files -->
<g id="node3" class="node">
<title>handwave_ai_media_files</title>
<path fill="#fff5cd" stroke="black" stroke-width="2" d="M558.91,-65.45C558.91,-69.07 519.21,-72 470.35,-72 421.49,-72 381.8,-69.07 381.8,-65.45 381.8,-65.45 381.8,-6.55 381.8,-6.55 381.8,-2.93 421.49,0 470.35,0 519.21,0 558.91,-2.93 558.91,-6.55 558.91,-6.55 558.91,-65.45 558.91,-65.45"/>
<path fill="none" stroke="black" stroke-width="2" d="M558.91,-65.45C558.91,-61.84 519.21,-58.91 470.35,-58.91 421.49,-58.91 381.8,-61.84 381.8,-65.45"/>
<text text-anchor="middle" x="470.35" y="-40.2" font-family="Arial" font-size="14.00">handwave_ai_media_files</text>
<text text-anchor="middle" x="470.35" y="-23.4" font-family="Arial" font-size="14.00">(AWS::S3::Bucket)</text>
</g>
<!-- handwave_ai_web_server -->
<g id="node4" class="node">
<title>handwave_ai_web_server</title>
<path fill="#b7e0ff" stroke="black" stroke-width="2" d="M355.68,-180C355.68,-180 201.02,-180 201.02,-180 195.02,-180 189.02,-174 189.02,-168 189.02,-168 189.02,-120 189.02,-120 189.02,-114 195.02,-108 201.02,-108 201.02,-108 355.68,-108 355.68,-108 361.68,-108 367.68,-114 367.68,-120 367.68,-120 367.68,-168 367.68,-168 367.68,-174 361.68,-180 355.68,-180"/>
<text text-anchor="middle" x="278.35" y="-148.2" font-family="Arial" font-size="14.00">handwave_ai_web_server</text>
<text text-anchor="middle" x="278.35" y="-131.4" font-family="Arial" font-size="14.00">(AWS::EC2::Instance)</text>
</g>
<!-- handwave_ai_web_server&#45;&gt;handwave_ai_database -->
<g id="edge1" class="edge">
<title>handwave_ai_web_server&#45;&gt;handwave_ai_database</title>
<path fill="none" stroke="black" d="M214.49,-107.56C196.73,-97.7 177.34,-86.94 159.17,-76.85"/>
<polygon fill="black" stroke="black" points="160.98,-73.86 150.54,-72.07 157.58,-79.98 160.98,-73.86"/>
</g>
<!-- handwave_ai_web_server&#45;&gt;handwave_ai_static_files -->
<g id="edge2" class="edge">
<title>handwave_ai_web_server&#45;&gt;handwave_ai_static_files</title>
<path fill="none" stroke="black" d="M278.35,-107.7C278.35,-99.93 278.35,-91.57 278.35,-83.43"/>
<polygon fill="black" stroke="black" points="281.85,-83.66 278.35,-73.66 274.85,-83.66 281.85,-83.66"/>
</g>
<!-- handwave_ai_web_server&#45;&gt;handwave_ai_media_files -->
<g id="edge3" class="edge">
<title>handwave_ai_web_server&#45;&gt;handwave_ai_media_files</title>
<path fill="none" stroke="black" d="M342.55,-107.56C360.4,-97.7 379.89,-86.94 398.16,-76.85"/>
<polygon fill="black" stroke="black" points="399.78,-79.96 406.84,-72.06 396.4,-73.83 399.78,-79.96"/>
</g>
</g>
</svg>
